<?xml version="1.0" standalone="no"?>
<!DOCTYPE svg PUBLIC "-//W3C//DTD SVG 20010904//EN"
 "http://www.w3.org/TR/2001/REC-SVG-20010904/DTD/svg10.dtd">
<svg version="1.0" xmlns="http://www.w3.org/2000/svg"
 width="700.000000pt" height="700.000000pt" viewBox="0 0 700.000000 700.000000"
 preserveAspectRatio="xMidYMid meet">
<metadata>
Created by potrace 1.14, written by Peter Selinger 2001-2017
</metadata>
<g transform="translate(0.000000,700.000000) scale(0.100000,-0.100000)"
fill="#000000" stroke="none">
<path d="M4876 6915 c-25 -20 -46 -39 -46 -43 0 -4 -15 -23 -33 -43 -17 -19
-63 -71 -102 -114 -201 -224 -605 -626 -830 -825 -33 -29 -70 -62 -81 -74 -12
-11 -45 -41 -74 -66 -29 -25 -61 -52 -70 -60 -127 -111 -390 -334 -460 -390
-24 -19 -62 -51 -84 -71 -72 -64 -553 -448 -850 -678 -65 -50 -121 -89 -124
-87 -3 3 0 12 7 20 6 7 40 65 75 127 82 149 108 195 174 309 223 386 487 876
499 926 1 5 14 41 29 79 30 83 28 73 58 202 50 213 52 387 4 541 -56 182 -154
286 -253 268 -85 -16 -202 -176 -493 -676 -90 -155 -332 -588 -332 -595 0 -2
-16 -32 -36 -67 -20 -34 -67 -121 -104 -193 -38 -71 -84 -159 -104 -195 -84
-156 -180 -344 -393 -770 -216 -431 -269 -540 -378 -775 -25 -55 -50 -107 -56
-115 -5 -8 -12 -22 -15 -30 -3 -8 -15 -35 -27 -60 -11 -25 -31 -70 -44 -100
-14 -30 -35 -78 -48 -105 -12 -28 -39 -91 -60 -140 -20 -50 -45 -109 -56 -132
-10 -23 -19 -45 -19 -48 0 -4 -6 -21 -14 -38 -48 -108 -79 -207 -112 -357 -32
-147 -39 -214 -38 -380 0 -111 5 -149 23 -210 74 -241 202 -369 303 -302 46
30 67 66 142 244 74 175 168 388 224 508 16 36 46 101 67 145 70 154 161 341
291 602 l132 263 28 -37 c16 -21 61 -87 101 -148 39 -60 76 -114 80 -120 5 -5
23 -35 41 -65 18 -30 56 -91 84 -135 59 -93 263 -437 306 -516 16 -30 41 -76
57 -104 77 -138 139 -252 198 -366 l66 -125 1 -120 c0 -182 21 -344 66 -514
25 -96 29 -107 80 -235 105 -259 297 -506 499 -640 132 -87 307 -165 430 -190
178 -37 247 -43 420 -40 99 2 196 6 215 9 19 3 51 8 70 11 202 31 500 145 668
256 24 16 45 29 48 29 3 0 10 4 17 10 7 5 46 37 87 71 117 96 264 242 340 339
19 25 41 51 48 59 41 43 192 300 216 367 3 10 11 33 17 49 78 219 76 436 -5
597 -54 109 -146 146 -240 98 -50 -25 -68 -48 -134 -172 -30 -57 -61 -110 -68
-119 -8 -8 -14 -19 -14 -24 0 -10 -4 -17 -149 -235 -124 -187 -113 -172 -244
-331 -144 -175 -294 -320 -461 -444 -112 -83 -302 -169 -421 -190 -147 -26
-250 -6 -368 73 -134 87 -258 284 -303 477 -21 90 -26 116 -31 150 -3 22 -9
60 -13 85 -9 46 -6 458 3 495 2 11 8 52 12 90 4 39 9 79 11 90 2 11 11 58 20
105 99 535 331 1058 668 1505 166 221 265 335 461 530 175 175 205 202 400
363 42 35 202 151 260 188 33 22 62 42 63 47 2 4 8 7 13 7 5 0 37 17 71 38
240 145 480 212 564 157 67 -44 77 -156 30 -335 -14 -50 -83 -240 -144 -392
-142 -353 -168 -455 -165 -653 2 -182 59 -317 187 -440 77 -74 132 -104 206
-112 95 -10 168 43 203 147 58 171 154 412 227 565 53 112 130 276 140 300 13
29 49 162 57 215 5 25 7 101 7 170 -1 103 -6 140 -28 213 -61 205 -193 410
-385 596 -143 139 -238 191 -432 237 -42 10 -313 13 -354 4 -22 -4 -59 -11
-82 -14 -48 -6 -135 -28 -237 -58 -207 -62 -467 -206 -746 -414 -58 -43 -107
-80 -110 -83 -3 -4 -27 -24 -55 -46 -101 -81 -209 -179 -350 -320 -127 -128
-191 -197 -265 -285 -25 -29 -50 -58 -55 -64 -85 -91 -357 -473 -435 -611 -71
-125 -96 -171 -152 -280 -33 -66 -76 -156 -95 -200 -19 -44 -38 -83 -42 -88
-4 -4 -25 25 -46 65 -21 40 -49 91 -61 113 -13 22 -29 51 -37 65 -53 95 -84
149 -199 339 -70 118 -128 217 -128 221 0 4 72 59 159 123 159 116 407 306
552 421 42 34 94 75 115 91 95 74 454 369 489 402 11 10 49 43 85 73 118 100
118 100 246 215 168 150 216 196 435 414 245 245 326 335 435 481 214 288 316
539 310 763 -3 109 -29 187 -77 237 -34 35 -45 40 -83 40 -34 0 -53 -7 -90
-35z"/>
</g>
</svg>
