<svg id="Layer_1" data-name="Layer 1" xmlns="http://www.w3.org/2000/svg" viewBox="0 0 796.32 294.58"><defs><style>.cls-1{fill:#074087;}.cls-2{fill:#fce205;}.cls-3,.cls-4{fill:none;stroke:#074087;stroke-miterlimit:10;}.cls-3{stroke-width:43px;}.cls-4{stroke-width:41px;}</style></defs><path class="cls-1" d="M348.17,180.66a68.15,68.15,0,0,1,11.06-.92c7.85,0,13.81,2.12,17.36,5.9,3.47,3.58,5.37,8.41,5.37,14.94,0,6.34-1.73,12.06-5.63,16.35s-10.29,6.61-18.61,6.61a92.84,92.84,0,0,1-9.55-.38Zm3,40a49.68,49.68,0,0,0,7,.32c13.86,0,20.67-7.74,20.67-20.23.1-10.95-6-18.44-19.8-18.44a41.45,41.45,0,0,0-7.83.69Z" transform="translate(-3.37 -3.71)"/><path class="cls-1" d="M389.1,207.56c0,9.8,5.34,13.69,11.68,13.69a17.77,17.77,0,0,0,8.54-1.74l.79,2.4c-1.19.64-4.34,2-9.7,2-8.83,0-14.32-6.44-14.32-15.43,0-10.25,5.87-16.67,13.81-16.67,10.06,0,12,9.46,12,13.89a10.15,10.15,0,0,1-.1,1.89Zm19.58-2.44c.08-4.28-1.71-10.81-9.18-10.81-6.75,0-9.68,6.08-10.24,10.81Z" transform="translate(-3.37 -3.71)"/><path class="cls-1" d="M418.39,177.77h3V223.2h-3Z" transform="translate(-3.37 -3.71)"/><path class="cls-1" d="M434.67,183.7a2.47,2.47,0,1,1-4.93,0,2.58,2.58,0,0,1,2.48-2.65A2.5,2.5,0,0,1,434.67,183.7Zm-4,39.5V192.49h3V223.2Z" transform="translate(-3.37 -3.71)"/><path class="cls-1" d="M441.8,192.49,449,211.56c1.21,3,2.17,5.61,3,8.22h.14c.85-2.56,2-5.28,3.12-8.22l7.31-19.07h3.2L453.29,223.2H450.6l-12-30.71Z" transform="translate(-3.37 -3.71)"/><path class="cls-1" d="M470.44,207.56c0,9.8,5.35,13.69,11.68,13.69a17.85,17.85,0,0,0,8.55-1.74l.78,2.4c-1.18.64-4.34,2-9.7,2-8.83,0-14.31-6.44-14.31-15.43,0-10.25,5.87-16.67,13.8-16.67,10.07,0,12,9.46,12,13.89a10.15,10.15,0,0,1-.1,1.89ZM490,205.12c.08-4.28-1.72-10.81-9.19-10.81-6.75,0-9.68,6.08-10.24,10.81Z" transform="translate(-3.37 -3.71)"/><path class="cls-1" d="M499.72,201.7c0-3.07-.09-6.24-.25-9.21h2.81l.13,6.24h.18c1.34-3.89,4.51-6.95,8.71-6.95a5,5,0,0,1,1.25.15v2.91a6.7,6.7,0,0,0-1.47-.1c-4.21,0-7.23,3.67-8.06,8.59a17.05,17.05,0,0,0-.26,2.92V223.2h-3Z" transform="translate(-3.37 -3.71)"/><path class="cls-1" d="M521.77,183.7a2.47,2.47,0,1,1-4.93,0,2.58,2.58,0,0,1,2.48-2.65A2.5,2.5,0,0,1,521.77,183.7Zm-4,39.5V192.49h3V223.2Z" transform="translate(-3.37 -3.71)"/><path class="cls-1" d="M529.88,199.83c0-2.82-.09-4.93-.26-7.34h2.84l.22,5.55h.13a11.56,11.56,0,0,1,10.57-6.26c2.93,0,10.72,1.51,10.72,13V223.2h-3V205.06c0-5.6-2.16-10.67-8.51-10.67a9.94,9.94,0,0,0-9.63,9.81v19h-3Z" transform="translate(-3.37 -3.71)"/><path class="cls-1" d="M587.64,192.49c-.16,2.28-.26,4.72-.26,7.93v18.3c0,7.88-1.61,11.78-4.21,14.23-2.79,2.67-6.92,3.63-10.39,3.63s-7.43-.9-9.76-2.64l1.08-2.45a16.49,16.49,0,0,0,9.14,2.56c6.45,0,11.1-3.34,11.1-12.45v-4.33h-.12c-1.6,3.12-5.2,5.93-10.69,5.93-7.71,0-13.17-6.73-13.17-15.07,0-10.73,7-16.35,13.84-16.35,6,0,9.07,3.31,10.32,5.89h.13l.17-5.18Zm-3.3,11.8a9.52,9.52,0,0,0-.38-3,9.92,9.92,0,0,0-9.55-7c-6.5,0-11,5.34-11,13.47,0,6.91,3.63,12.9,10.9,12.9a10,10,0,0,0,9.47-7,10.16,10.16,0,0,0,.54-3.25Z" transform="translate(-3.37 -3.71)"/><path class="cls-1" d="M609.22,180.66a68.25,68.25,0,0,1,11.06-.92c7.85,0,13.81,2.12,17.36,5.9,3.47,3.58,5.37,8.41,5.37,14.94,0,6.34-1.72,12.06-5.63,16.35s-10.29,6.61-18.6,6.61a92.93,92.93,0,0,1-9.56-.38Zm3,40a49.68,49.68,0,0,0,7,.32c13.86,0,20.67-7.74,20.67-20.23.1-10.95-6-18.44-19.8-18.44a41.54,41.54,0,0,0-7.83.69Z" transform="translate(-3.37 -3.71)"/><path class="cls-1" d="M653.35,183.7a2.47,2.47,0,1,1-4.93,0,2.58,2.58,0,0,1,2.48-2.65A2.5,2.5,0,0,1,653.35,183.7Zm-4,39.5V192.49h3V223.2Z" transform="translate(-3.37 -3.71)"/><path class="cls-1" d="M686.2,192.49c-.16,2.28-.26,4.72-.26,7.93v18.3c0,7.88-1.61,11.78-4.21,14.23-2.8,2.67-6.92,3.63-10.4,3.63s-7.42-.9-9.75-2.64l1.08-2.45a16.49,16.49,0,0,0,9.14,2.56c6.45,0,11.1-3.34,11.1-12.45v-4.33h-.13c-1.6,3.12-5.2,5.93-10.68,5.93-7.71,0-13.17-6.73-13.17-15.07,0-10.73,7-16.35,13.84-16.35,6,0,9.07,3.31,10.32,5.89h.13l.17-5.18Zm-3.3,11.8a9.52,9.52,0,0,0-.38-3,9.93,9.93,0,0,0-9.55-7c-6.5,0-11,5.34-11,13.47,0,6.91,3.63,12.9,10.9,12.9a10,10,0,0,0,9.47-7,10.16,10.16,0,0,0,.54-3.25Z" transform="translate(-3.37 -3.71)"/><path class="cls-1" d="M698.47,183.7a2.47,2.47,0,1,1-4.93,0,2.58,2.58,0,0,1,2.48-2.65A2.5,2.5,0,0,1,698.47,183.7Zm-4,39.5V192.49h3V223.2Z" transform="translate(-3.37 -3.71)"/><path class="cls-1" d="M710.81,183.59v8.9h8.75V195h-8.75v20c0,3.9,1.21,6.35,4.51,6.35a10.82,10.82,0,0,0,3.49-.48l.36,2.35a10.87,10.87,0,0,1-4.24.74,6.53,6.53,0,0,1-5.29-2.18c-1.39-1.62-1.87-4.19-1.87-7.33V195h-5.19v-2.46h5.19v-7.91Z" transform="translate(-3.37 -3.71)"/><path class="cls-1" d="M741.83,223.2l-.45-4.4h-.14a11.6,11.6,0,0,1-9.79,5.11c-6.18,0-9-4.35-9-8.45,0-7.09,6.24-11.36,18.73-11.23v-.82c0-3-.59-9.1-7.85-9a13.52,13.52,0,0,0-7.72,2.29l-1-2.21a16.42,16.42,0,0,1,9-2.66c8.86,0,10.56,6.66,10.56,12.15v12a50.26,50.26,0,0,0,.45,7.29Zm-.69-16.41c-6.69-.19-15.52.82-15.52,8.19,0,4.42,2.91,6.4,6.11,6.4a9.26,9.26,0,0,0,9.09-6.16,6,6,0,0,0,.32-1.84Z" transform="translate(-3.37 -3.71)"/><path class="cls-1" d="M752.85,177.77h3V223.2h-3Z" transform="translate(-3.37 -3.71)"/><path class="cls-1" d="M765.14,177.77h3V223.2h-3Z" transform="translate(-3.37 -3.71)"/><path class="cls-1" d="M776.17,192.49l8,20.07c.85,2.18,1.7,4.66,2.26,6.63h.13c.62-1.91,1.42-4.31,2.33-6.82l7.52-19.88h3.25l-9.22,22.92c-3.71,9.54-6.32,15.23-10.33,18.72a17.08,17.08,0,0,1-5.38,3.2l-1-2.54a15.79,15.79,0,0,0,5.36-3.43,24,24,0,0,0,5.13-7.72,4,4,0,0,0,.37-1.33,3.69,3.69,0,0,0-.37-1.35l-11.37-28.47Z" transform="translate(-3.37 -3.71)"/><path class="cls-1" d="M399.66,143.73c-3.26,1.63-10.44,3.4-19.56,3.4-23.92,0-38.48-15-38.48-38,0-24.78,17.3-39.76,40.35-39.76,9.07,0,15.48,1.84,18.26,3.33l-3,11a35.75,35.75,0,0,0-14.7-2.95c-15.37,0-26.43,9.59-26.43,27.72,0,16.61,9.68,27.13,26.25,27.13,5.57,0,11.38-1.1,15-2.73Z" transform="translate(-3.37 -3.71)"/><path class="cls-1" d="M458.54,118.2c0,20-14.05,29-28,29-15.36,0-27.25-10.6-27.25-28,0-17.86,11.76-28.86,28.17-28.86C447.7,90.28,458.54,101.69,458.54,118.2Zm-41.07.59c0,10.48,5.23,18.4,13.54,18.4,7.89,0,13.38-7.62,13.38-18.58,0-8.56-3.79-18.33-13.29-18.33C421.43,100.28,417.47,109.71,417.47,118.79Z" transform="translate(-3.37 -3.71)"/><path class="cls-1" d="M467.65,107.7c0-6.29-.2-11.48-.44-16.19h12l.67,8.17h.32a19.84,19.84,0,0,1,17.36-9.4c9.49,0,19.35,6.11,19.35,23.34V146H503.16V115.24c0-7.82-2.87-13.77-10.39-13.77-5.48,0-9.27,3.87-10.71,8.08a13.62,13.62,0,0,0-.63,4.37v32H467.65Z" transform="translate(-3.37 -3.71)"/><path class="cls-1" d="M539.08,122.54c.37,9.87,8,14.18,16.82,14.18a41.39,41.39,0,0,0,15-2.52l2,9.48a49.21,49.21,0,0,1-19,3.45c-17.68,0-28-10.92-28-27.6,0-15,9.12-29.25,26.63-29.25,17.7,0,23.46,14.55,23.46,26.48a28.2,28.2,0,0,1-.49,5.78ZM563,113c.06-5-2.14-13.27-11.36-13.27-8.47,0-12,7.69-12.61,13.27Z" transform="translate(-3.37 -3.71)"/><path class="cls-1" d="M585.33,71.61A124.06,124.06,0,0,1,606.21,70c10.81,0,18.18,1.82,23.25,6.07,4.15,3.45,6.5,8.68,6.5,15.14,0,9.71-6.6,16.34-13.71,18.84v.32c5.46,2.07,8.64,7.26,10.51,14.59,2.4,9.43,4.45,18.08,6,21H624.58c-1.18-2.18-3-8.41-5.08-17.79-2.17-9.82-5.74-13-13.57-13.19H599v31H585.33ZM599,104.88h8.15c9.34,0,15.09-4.92,15.09-12.42,0-8.2-5.78-12-14.68-12.08a38.37,38.37,0,0,0-8.56.7Z" transform="translate(-3.37 -3.71)"/><path class="cls-1" d="M710.05,158a307.6,307.6,0,0,1-29.39-9.71,16.49,16.49,0,0,0-4.92-1.14c-17.44-.9-33-13.74-33-38.21,0-23.32,14.48-39.64,36-39.64,21.86,0,34.8,16.73,34.8,38.08,0,18.13-8.38,30.34-19.47,34.77v.45c6.52,1.78,13.79,3.35,19.92,4.52Zm-11-50c0-14.37-7.08-27.66-20.67-27.66-13.79,0-21.11,13.11-21.1,28.22s7.7,27.59,20.82,27.59C691.41,136.17,699,123.86,699,108Z" transform="translate(-3.37 -3.71)"/><rect class="cls-2" x="46.51" y="46.85" width="208.3" height="208.3" transform="translate(-66.02 147.05) rotate(-45)"/><polyline class="cls-3" points="105.64 41.29 212.39 147.29 105.64 253.29"/><polyline class="cls-4" points="48.62 98.2 94.99 147.38 48.26 196.2"/></svg>